<?xml version="1.0" standalone="no"?>
<!DOCTYPE svg PUBLIC "-//W3C//DTD SVG 20010904//EN"
 "http://www.w3.org/TR/2001/REC-SVG-20010904/DTD/svg10.dtd">
<svg version="1.0" xmlns="http://www.w3.org/2000/svg"
 width="356.000000pt" height="356.000000pt" viewBox="0 0 356.000000 356.000000"
 preserveAspectRatio="xMidYMid meet">
<metadata>
Created by potrace 1.11, written by Peter Selinger 2001-2013
</metadata>
<g transform="translate(0.000000,356.000000) scale(0.100000,-0.100000)"
fill="#000000" stroke="none">
<path d="M1670 3437 c-5 -4 -33 -9 -145 -23 -50 -6 -221 -51 -246 -65 -11 -5
-19 -6 -19 -2 0 4 -5 2 -12 -5 -7 -7 -18 -12 -26 -12 -18 0 -243 -110 -260
-127 -7 -7 -18 -13 -23 -13 -11 0 -82 -51 -87 -62 -2 -5 -8 -8 -14 -8 -11 0
-117 -80 -136 -103 -10 -12 -8 -14 10 -14 13 1 47 -5 76 -11 30 -7 58 -10 63
-6 5 3 9 -2 9 -10 0 -8 -14 -26 -31 -39 l-32 -25 29 -6 c16 -3 47 -8 69 -11
23 -3 52 -8 65 -10 52 -11 209 -31 305 -40 144 -13 178 -16 325 -22 227 -9
541 -4 705 12 22 2 72 6 110 9 39 3 81 8 95 11 14 3 52 8 85 10 57 5 100 12
100 15 0 1 14 3 30 4 17 2 44 6 60 9 17 4 46 9 65 12 19 3 36 7 37 9 1 1 -16
16 -39 34 -27 21 -36 33 -27 36 25 8 94 19 106 17 29 -4 19 20 -19 51 -24 18
-45 36 -46 40 -2 5 -8 6 -13 2 -5 -3 -9 -1 -9 5 0 8 -52 45 -121 86 -9 6 -24
17 -33 24 -9 7 -16 10 -16 7 0 -4 -13 2 -28 13 -16 11 -35 21 -43 23 -8 2 -16
6 -19 9 -6 7 -102 51 -115 53 -5 1 -14 4 -20 8 -5 3 -44 17 -85 32 -86 29
-155 46 -300 72 -34 7 -375 16 -380 11z"/>
<path d="M470 2783 c0 -5 -9 -19 -20 -31 -12 -12 -17 -22 -13 -22 4 0 -3 -7
-15 -16 -12 -8 -20 -20 -17 -25 4 -5 2 -9 -2 -9 -9 0 -79 -111 -76 -122 1 -3
-4 -12 -12 -18 -8 -7 -15 -16 -15 -21 0 -5 -11 -27 -25 -49 -14 -22 -23 -40
-20 -40 3 0 -2 -14 -10 -31 -15 -28 -72 -193 -80 -229 -2 -8 -10 -44 -18 -80
-8 -36 -15 -72 -16 -80 -1 -35 -8 -77 -14 -87 -8 -13 -2 -372 8 -428 5 -34 36
-179 41 -195 1 -3 5 -20 9 -38 4 -18 12 -35 16 -38 5 -3 7 -10 3 -15 -3 -5 -1
-15 4 -22 5 -7 15 -30 22 -52 7 -22 16 -44 21 -49 5 -6 9 -18 9 -28 0 -28 14
-22 58 26 22 24 43 42 45 39 3 -2 18 13 33 34 16 20 53 63 82 94 l53 56 42
-39 c28 -26 49 -37 62 -35 30 7 180 71 183 79 2 4 9 5 17 2 7 -3 15 -1 19 4 3
5 30 7 61 5 36 -2 54 1 50 7 -3 6 -1 10 5 10 7 0 10 25 9 75 -2 62 -5 75 -18
75 -17 0 -19 34 -6 90 14 60 13 104 -2 133 -21 42 -26 99 -12 149 7 24 13 45
14 48 0 3 9 20 18 38 10 17 15 32 12 32 -2 0 2 8 9 18 8 9 36 44 63 77 53 67
117 138 150 168 12 11 20 25 16 30 -3 6 -1 7 5 3 6 -3 15 1 20 10 5 9 11 14
13 13 8 -7 49 28 41 35 -4 4 -2 6 3 5 8 -3 68 17 175 58 20 8 21 8 51 17 15 4
40 22 57 39 26 27 31 41 34 89 2 36 8 60 16 63 7 3 10 9 7 15 -3 5 -2 10 3 10
6 0 12 6 15 14 4 11 -7 14 -51 14 -31 -1 -109 2 -172 6 -166 10 -208 13 -375
32 -65 7 -327 44 -357 50 -13 2 -40 6 -60 9 -21 2 -41 6 -45 8 -5 3 -26 8 -48
11 -22 4 -48 9 -57 12 -10 3 -18 1 -18 -3z"/>
<path d="M3065 2774 c-33 -7 -78 -16 -100 -19 -22 -3 -47 -8 -55 -10 -8 -2
-35 -7 -60 -10 -25 -2 -56 -7 -70 -10 -14 -3 -45 -8 -70 -11 -25 -2 -56 -7
-70 -9 -14 -3 -56 -7 -95 -10 -38 -4 -86 -8 -105 -11 -19 -3 -60 -7 -90 -9
-180 -12 -305 -17 -377 -18 l-82 0 24 -29 c13 -16 23 -34 21 -41 -2 -6 -10
-41 -17 -77 -7 -39 -20 -70 -30 -78 -10 -6 -20 -25 -24 -42 -7 -34 -29 -50
-56 -43 -24 7 -24 -8 -1 -33 20 -21 33 -49 38 -79 2 -11 7 -31 10 -45 4 -14 8
-33 9 -43 1 -9 9 -25 19 -35 9 -9 33 -39 54 -67 20 -27 64 -77 97 -111 66 -68
126 -134 119 -134 -2 0 4 -10 14 -22 45 -56 71 -78 96 -80 14 -1 26 -6 26 -10
0 -4 9 -12 20 -18 14 -8 29 -7 56 5 43 18 169 142 179 176 30 110 126 233 215
276 36 18 154 27 144 12 -3 -5 2 -9 10 -9 23 0 66 -71 70 -114 1 -21 -3 -48
-10 -62 -7 -13 -14 -28 -16 -32 -7 -19 -57 -66 -100 -92 -57 -35 -161 -70
-220 -75 -47 -3 -98 -23 -98 -37 0 -5 -3 -7 -8 -4 -4 2 -31 -15 -61 -40 -29
-24 -51 -44 -48 -44 2 0 -22 -27 -55 -60 -49 -48 -63 -58 -78 -50 -9 5 -20 7
-24 5 -3 -3 -4 -2 -1 2 7 9 -25 43 -40 43 -6 0 -25 15 -42 33 -35 37 -83 79
-83 72 0 -3 -8 2 -17 10 -56 48 -93 76 -93 70 0 -7 -28 23 -77 79 -12 15 -18
26 -15 26 4 0 -2 7 -12 15 -11 8 -16 15 -12 15 4 0 -5 16 -20 35 -16 19 -42
50 -58 70 -16 19 -37 35 -47 35 -9 0 -19 7 -23 15 -6 17 -86 21 -86 4 0 -5 -4
-7 -10 -4 -5 3 -23 -1 -40 -10 -16 -8 -31 -14 -32 -13 -8 7 -146 -78 -164
-101 -29 -36 -38 -67 -22 -80 29 -23 178 -120 178 -115 0 2 10 -4 22 -15 11
-11 25 -18 30 -15 4 3 8 1 8 -4 0 -5 11 -14 25 -20 38 -17 54 -56 71 -171 2
-18 9 -42 15 -53 6 -10 12 -27 14 -36 14 -59 38 -138 43 -142 4 -3 8 -16 9
-30 4 -38 25 -100 35 -100 4 0 7 -4 6 -9 -4 -15 35 -71 50 -71 6 0 12 -5 12
-10 0 -14 102 -58 151 -65 60 -9 87 -21 94 -44 13 -41 -23 -70 -105 -85 -14
-3 -25 -5 -25 -6 0 -1 -66 -3 -147 -5 -134 -3 -148 -1 -167 17 -12 10 -19 23
-17 27 8 12 17 62 21 106 3 39 -26 122 -47 136 -5 3 -9 8 -8 10 5 10 -24 58
-32 53 -5 -3 -8 -2 -7 3 3 18 -2 32 -15 46 -24 24 -57 137 -57 194 0 46 -4 56
-25 70 -14 8 -27 13 -31 9 -3 -3 -12 -1 -19 5 -7 6 -30 12 -51 14 -21 1 -45 5
-53 8 -59 19 -96 25 -103 18 -8 -8 -19 -57 -21 -96 -1 -11 -3 -22 -6 -25 -12
-12 -30 -62 -25 -71 4 -5 1 -9 -4 -9 -6 0 -11 -4 -11 -10 0 -5 -11 -33 -24
-62 -13 -29 -27 -70 -30 -91 -4 -21 -11 -35 -16 -32 -5 3 -11 1 -14 -4 -7 -11
-80 -25 -121 -23 -16 1 -37 -1 -45 -5 -23 -9 -48 -12 -154 -18 -117 -6 -201
-25 -260 -60 -24 -14 -50 -25 -59 -25 -10 0 -17 -4 -17 -8 0 -5 -6 -9 -14 -9
-22 0 -86 -33 -86 -44 0 -6 -4 -8 -8 -5 -4 2 -13 1 -20 -3 -13 -8 3 -43 65
-136 21 -32 43 -65 48 -73 21 -33 58 -71 65 -67 6 4 43 12 85 19 76 13 154 27
175 31 56 10 164 26 208 30 26 3 67 8 92 11 52 7 98 11 195 18 39 3 106 9 150
12 182 15 814 7 965 -11 19 -2 62 -7 95 -9 131 -12 237 -25 395 -51 47 -8 101
-16 120 -20 19 -3 63 -11 96 -19 l61 -13 52 67 c28 37 51 71 51 75 0 5 10 22
23 39 26 35 82 148 122 245 111 267 147 593 100 889 -11 74 -16 97 -21 114 -3
9 -7 27 -10 40 -9 38 -9 41 -29 98 -11 30 -19 57 -20 60 -1 13 -49 126 -57
135 -4 5 -8 17 -8 26 0 10 -3 19 -7 21 -5 2 -21 28 -37 58 -16 30 -37 61 -45
68 -11 9 -12 11 -2 6 15 -8 -50 89 -91 137 -23 26 -23 26 -83 13z m136 -570
c23 -20 25 -60 5 -80 -22 -21 -73 -29 -92 -13 -27 23 -33 52 -16 81 23 40 67
45 103 12z"/>
<path d="M1537 674 c-1 -2 -38 -5 -82 -8 -177 -11 -241 -17 -259 -23 -10 -3
-42 -7 -70 -8 -28 -2 -64 -6 -81 -9 -16 -3 -46 -8 -65 -11 -19 -3 -48 -9 -65
-12 -16 -3 -38 -5 -47 -5 -10 0 -20 -3 -23 -8 -3 -4 -15 -6 -28 -3 -18 4 -14
-2 18 -31 39 -34 39 -35 15 -40 -14 -2 -38 -8 -55 -11 -16 -4 -46 -9 -65 -11
-18 -3 -35 -6 -37 -7 -1 -2 21 -21 49 -42 28 -22 56 -44 62 -50 14 -13 64 -45
71 -45 2 0 16 -11 29 -23 14 -13 81 -51 149 -85 147 -74 276 -120 410 -147 10
-2 26 -6 35 -9 21 -6 86 -15 177 -25 139 -15 364 0 505 34 14 3 36 8 50 11 14
3 34 8 45 11 11 4 25 8 30 9 30 6 211 78 213 85 2 5 10 9 18 9 16 0 147 69
172 91 10 8 19 15 22 15 9 0 105 68 161 115 l57 46 -69 13 c-38 6 -69 15 -69
18 0 4 17 22 37 40 37 31 37 32 13 33 -31 2 -56 5 -100 14 -19 3 -51 8 -70 10
-19 2 -35 4 -35 5 0 3 -41 9 -94 14 -31 3 -66 7 -79 10 -13 3 -62 8 -110 11
-48 4 -103 9 -122 11 -39 6 -708 13 -713 8z"/>
</g>
</svg>
